<mxfile host="app.diagrams.net" modified="2023-07-08T11:17:13.920Z" agent="Mozilla/5.0 (Windows NT 10.0; Win64; x64) AppleWebKit/537.36 (KHTML, like Gecko) Chrome/114.0.0.0 Safari/537.36" etag="Q7hB1LuwmW7xyJrjhK0Y" version="21.5.0" type="github">
  <diagram name="Page-1" id="R-quI3UAUqY8mXfWR5DA">
    <mxGraphModel dx="1730" dy="1552" grid="1" gridSize="10" guides="1" tooltips="1" connect="1" arrows="1" fold="1" page="1" pageScale="1" pageWidth="850" pageHeight="1100" math="0" shadow="0">
      <root>
        <mxCell id="0" />
        <mxCell id="1" parent="0" />
        <mxCell id="Xi_Mlwiq7mVEcRBWBNJl-1" value="&lt;b&gt;&lt;font color=&quot;#000000&quot;&gt;CruddurVPC&lt;/font&gt;&lt;/b&gt;" style="points=[[0,0],[0.25,0],[0.5,0],[0.75,0],[1,0],[1,0.25],[1,0.5],[1,0.75],[1,1],[0.75,1],[0.5,1],[0.25,1],[0,1],[0,0.75],[0,0.5],[0,0.25]];outlineConnect=0;gradientColor=none;html=1;whiteSpace=wrap;fontSize=12;fontStyle=0;container=1;pointerEvents=0;collapsible=0;recursiveResize=0;shape=mxgraph.aws4.group;grIcon=mxgraph.aws4.group_vpc;strokeColor=#248814;fillColor=none;verticalAlign=top;align=left;spacingLeft=30;fontColor=#AAB7B8;dashed=0;rounded=0;" parent="1" vertex="1">
          <mxGeometry x="330" y="20" width="500" height="490" as="geometry" />
        </mxCell>
        <mxCell id="Xi_Mlwiq7mVEcRBWBNJl-22" value="AZ1 us-east-1a" style="fillColor=none;strokeColor=#147EBA;dashed=1;verticalAlign=top;fontStyle=0;fontColor=#147EBA;whiteSpace=wrap;html=1;align=left;rounded=0;" parent="Xi_Mlwiq7mVEcRBWBNJl-1" vertex="1">
          <mxGeometry x="70" y="40" width="350" height="110" as="geometry" />
        </mxCell>
        <mxCell id="Xi_Mlwiq7mVEcRBWBNJl-2" value="AZ1 us-east-1b" style="fillColor=none;strokeColor=#147EBA;dashed=1;verticalAlign=top;fontStyle=0;fontColor=#147EBA;whiteSpace=wrap;html=1;align=left;rounded=0;" parent="Xi_Mlwiq7mVEcRBWBNJl-1" vertex="1">
          <mxGeometry x="70" y="190" width="350" height="100" as="geometry" />
        </mxCell>
        <mxCell id="Xi_Mlwiq7mVEcRBWBNJl-3" value="SubnetPriv2" style="points=[[0,0],[0.25,0],[0.5,0],[0.75,0],[1,0],[1,0.25],[1,0.5],[1,0.75],[1,1],[0.75,1],[0.5,1],[0.25,1],[0,1],[0,0.75],[0,0.5],[0,0.25]];outlineConnect=0;gradientColor=none;html=1;whiteSpace=wrap;fontSize=12;fontStyle=0;container=1;pointerEvents=0;collapsible=0;recursiveResize=0;shape=mxgraph.aws4.group;grIcon=mxgraph.aws4.group_security_group;grStroke=0;strokeColor=#147EBA;fillColor=#E6F2F8;verticalAlign=top;align=left;spacingLeft=30;fontColor=#147EBA;dashed=0;rounded=0;" parent="Xi_Mlwiq7mVEcRBWBNJl-1" vertex="1">
          <mxGeometry x="300" y="220" width="110" height="50" as="geometry" />
        </mxCell>
        <mxCell id="Xi_Mlwiq7mVEcRBWBNJl-4" style="edgeStyle=orthogonalEdgeStyle;rounded=0;orthogonalLoop=1;jettySize=auto;html=1;exitX=0.5;exitY=1;exitDx=0;exitDy=0;" parent="Xi_Mlwiq7mVEcRBWBNJl-1" source="Xi_Mlwiq7mVEcRBWBNJl-2" target="Xi_Mlwiq7mVEcRBWBNJl-2" edge="1">
          <mxGeometry relative="1" as="geometry" />
        </mxCell>
        <mxCell id="Xi_Mlwiq7mVEcRBWBNJl-5" value="" style="points=[[0,0],[0.25,0],[0.5,0],[0.75,0],[1,0],[1,0.25],[1,0.5],[1,0.75],[1,1],[0.75,1],[0.5,1],[0.25,1],[0,1],[0,0.75],[0,0.5],[0,0.25]];outlineConnect=0;gradientColor=none;html=1;whiteSpace=wrap;fontSize=12;fontStyle=0;container=1;pointerEvents=0;collapsible=0;recursiveResize=0;shape=mxgraph.aws4.group;grIcon=mxgraph.aws4.group_security_group;grStroke=0;strokeColor=#248814;fillColor=#E9F3E6;verticalAlign=top;align=left;spacingLeft=30;fontColor=#248814;dashed=0;rounded=0;" parent="Xi_Mlwiq7mVEcRBWBNJl-1" vertex="1">
          <mxGeometry x="100" y="220" width="180" height="50" as="geometry" />
        </mxCell>
        <mxCell id="Xi_Mlwiq7mVEcRBWBNJl-6" value="10.0.16.0/22" style="text;strokeColor=none;align=center;fillColor=none;html=1;verticalAlign=middle;whiteSpace=wrap;rounded=0;" parent="Xi_Mlwiq7mVEcRBWBNJl-1" vertex="1">
          <mxGeometry x="328" y="235" width="80" height="20" as="geometry" />
        </mxCell>
        <mxCell id="Xi_Mlwiq7mVEcRBWBNJl-7" style="edgeStyle=orthogonalEdgeStyle;orthogonalLoop=1;jettySize=auto;html=1;elbow=vertical;startArrow=baseDash;startFill=0;endArrow=none;endFill=0;" parent="Xi_Mlwiq7mVEcRBWBNJl-1" edge="1">
          <mxGeometry relative="1" as="geometry">
            <mxPoint x="480" y="320" as="targetPoint" />
            <mxPoint x="170" y="270" as="sourcePoint" />
            <Array as="points">
              <mxPoint x="170" y="320" />
            </Array>
          </mxGeometry>
        </mxCell>
        <mxCell id="Xi_Mlwiq7mVEcRBWBNJl-8" value="10.0.4.0/22" style="text;strokeColor=none;align=center;fillColor=none;html=1;verticalAlign=middle;whiteSpace=wrap;rounded=0;" parent="Xi_Mlwiq7mVEcRBWBNJl-1" vertex="1">
          <mxGeometry x="200" y="240" width="80" height="20" as="geometry" />
        </mxCell>
        <mxCell id="Xi_Mlwiq7mVEcRBWBNJl-9" value="AZ1 us-east-1c" style="fillColor=none;strokeColor=#147EBA;dashed=1;verticalAlign=top;fontStyle=0;fontColor=#147EBA;whiteSpace=wrap;html=1;align=left;rounded=0;" parent="Xi_Mlwiq7mVEcRBWBNJl-1" vertex="1">
          <mxGeometry x="70" y="330" width="350" height="100" as="geometry" />
        </mxCell>
        <mxCell id="Xi_Mlwiq7mVEcRBWBNJl-10" value="SubnetPriv3" style="points=[[0,0],[0.25,0],[0.5,0],[0.75,0],[1,0],[1,0.25],[1,0.5],[1,0.75],[1,1],[0.75,1],[0.5,1],[0.25,1],[0,1],[0,0.75],[0,0.5],[0,0.25]];outlineConnect=0;gradientColor=none;html=1;whiteSpace=wrap;fontSize=12;fontStyle=0;container=1;pointerEvents=0;collapsible=0;recursiveResize=0;shape=mxgraph.aws4.group;grIcon=mxgraph.aws4.group_security_group;grStroke=0;strokeColor=#147EBA;fillColor=#E6F2F8;verticalAlign=top;align=left;spacingLeft=30;fontColor=#147EBA;dashed=0;rounded=0;" parent="Xi_Mlwiq7mVEcRBWBNJl-1" vertex="1">
          <mxGeometry x="300" y="360" width="110" height="50" as="geometry" />
        </mxCell>
        <mxCell id="Xi_Mlwiq7mVEcRBWBNJl-14" value="10.0.20.0/22" style="text;strokeColor=none;align=center;fillColor=none;html=1;verticalAlign=middle;whiteSpace=wrap;rounded=0;" parent="Xi_Mlwiq7mVEcRBWBNJl-10" vertex="1">
          <mxGeometry x="28" y="15" width="80" height="20" as="geometry" />
        </mxCell>
        <mxCell id="Xi_Mlwiq7mVEcRBWBNJl-11" style="edgeStyle=orthogonalEdgeStyle;rounded=0;orthogonalLoop=1;jettySize=auto;html=1;exitX=0.5;exitY=1;exitDx=0;exitDy=0;" parent="Xi_Mlwiq7mVEcRBWBNJl-1" source="Xi_Mlwiq7mVEcRBWBNJl-9" target="Xi_Mlwiq7mVEcRBWBNJl-9" edge="1">
          <mxGeometry relative="1" as="geometry" />
        </mxCell>
        <mxCell id="Xi_Mlwiq7mVEcRBWBNJl-12" value="" style="points=[[0,0],[0.25,0],[0.5,0],[0.75,0],[1,0],[1,0.25],[1,0.5],[1,0.75],[1,1],[0.75,1],[0.5,1],[0.25,1],[0,1],[0,0.75],[0,0.5],[0,0.25]];outlineConnect=0;gradientColor=none;html=1;whiteSpace=wrap;fontSize=12;fontStyle=0;container=1;pointerEvents=0;collapsible=0;recursiveResize=0;shape=mxgraph.aws4.group;grIcon=mxgraph.aws4.group_security_group;grStroke=0;strokeColor=#248814;fillColor=#E9F3E6;verticalAlign=top;align=left;spacingLeft=30;fontColor=#248814;dashed=0;rounded=0;" parent="Xi_Mlwiq7mVEcRBWBNJl-1" vertex="1">
          <mxGeometry x="100" y="360" width="180" height="50" as="geometry" />
        </mxCell>
        <mxCell id="Xi_Mlwiq7mVEcRBWBNJl-42" value="&lt;font color=&quot;#248814&quot;&gt;SubnetPub3&lt;/font&gt;" style="text;strokeColor=none;align=center;fillColor=none;html=1;verticalAlign=middle;whiteSpace=wrap;rounded=0;" parent="Xi_Mlwiq7mVEcRBWBNJl-12" vertex="1">
          <mxGeometry x="100" width="80" height="20" as="geometry" />
        </mxCell>
        <mxCell id="Xi_Mlwiq7mVEcRBWBNJl-13" style="edgeStyle=orthogonalEdgeStyle;orthogonalLoop=1;jettySize=auto;html=1;elbow=vertical;exitX=0.429;exitY=1;exitDx=0;exitDy=0;exitPerimeter=0;startArrow=baseDash;startFill=0;endArrow=none;endFill=0;" parent="Xi_Mlwiq7mVEcRBWBNJl-1" source="Xi_Mlwiq7mVEcRBWBNJl-10" edge="1">
          <mxGeometry relative="1" as="geometry">
            <mxPoint x="480" y="450" as="targetPoint" />
            <mxPoint x="330" y="420" as="sourcePoint" />
            <Array as="points">
              <mxPoint x="347" y="450" />
            </Array>
          </mxGeometry>
        </mxCell>
        <mxCell id="Xi_Mlwiq7mVEcRBWBNJl-15" value="10.0.8.0/22" style="text;strokeColor=none;align=center;fillColor=none;html=1;verticalAlign=middle;whiteSpace=wrap;rounded=0;" parent="Xi_Mlwiq7mVEcRBWBNJl-1" vertex="1">
          <mxGeometry x="200" y="380" width="80" height="20" as="geometry" />
        </mxCell>
        <mxCell id="Xi_Mlwiq7mVEcRBWBNJl-16" value="Local(10.0.0.0/32)" style="text;strokeColor=none;align=center;fillColor=none;html=1;verticalAlign=middle;whiteSpace=wrap;rounded=0;" parent="Xi_Mlwiq7mVEcRBWBNJl-1" vertex="1">
          <mxGeometry x="30" y="20" width="100" height="30" as="geometry" />
        </mxCell>
        <mxCell id="Xi_Mlwiq7mVEcRBWBNJl-17" style="rounded=0;orthogonalLoop=1;jettySize=auto;html=1;startArrow=classic;startFill=1;endArrow=none;endFill=0;" parent="Xi_Mlwiq7mVEcRBWBNJl-1" source="Xi_Mlwiq7mVEcRBWBNJl-19" edge="1">
          <mxGeometry relative="1" as="geometry">
            <mxPoint x="340" y="-80" as="targetPoint" />
          </mxGeometry>
        </mxCell>
        <mxCell id="Xi_Mlwiq7mVEcRBWBNJl-18" style="edgeStyle=orthogonalEdgeStyle;orthogonalLoop=1;jettySize=auto;html=1;elbow=vertical;endArrow=baseDash;endFill=0;startArrow=classic;startFill=1;" parent="Xi_Mlwiq7mVEcRBWBNJl-1" source="Xi_Mlwiq7mVEcRBWBNJl-19" target="Xi_Mlwiq7mVEcRBWBNJl-12" edge="1">
          <mxGeometry relative="1" as="geometry">
            <Array as="points">
              <mxPoint x="480" y="10" />
              <mxPoint x="480" y="470" />
              <mxPoint x="170" y="470" />
            </Array>
          </mxGeometry>
        </mxCell>
        <mxCell id="Xi_Mlwiq7mVEcRBWBNJl-19" value="" style="outlineConnect=0;fontColor=#232F3E;gradientColor=none;fillColor=#4D27AA;strokeColor=none;dashed=0;verticalLabelPosition=bottom;verticalAlign=top;align=center;html=1;fontSize=12;fontStyle=0;aspect=fixed;pointerEvents=1;shape=mxgraph.aws4.router;rounded=0;" parent="Xi_Mlwiq7mVEcRBWBNJl-1" vertex="1">
          <mxGeometry x="316" y="-20" width="44" height="44" as="geometry" />
        </mxCell>
        <mxCell id="Xi_Mlwiq7mVEcRBWBNJl-20" style="edgeStyle=orthogonalEdgeStyle;orthogonalLoop=1;jettySize=auto;html=1;elbow=vertical;exitX=0.429;exitY=1;exitDx=0;exitDy=0;exitPerimeter=0;startArrow=baseDash;startFill=0;endArrow=none;endFill=0;" parent="Xi_Mlwiq7mVEcRBWBNJl-1" edge="1">
          <mxGeometry relative="1" as="geometry">
            <mxPoint x="480" y="310" as="targetPoint" />
            <mxPoint x="330" y="270" as="sourcePoint" />
            <Array as="points">
              <mxPoint x="330" y="310" />
            </Array>
          </mxGeometry>
        </mxCell>
        <mxCell id="Xi_Mlwiq7mVEcRBWBNJl-21" style="edgeStyle=orthogonalEdgeStyle;orthogonalLoop=1;jettySize=auto;html=1;elbow=vertical;startArrow=baseDash;startFill=0;endArrow=none;endFill=0;" parent="Xi_Mlwiq7mVEcRBWBNJl-1" edge="1">
          <mxGeometry relative="1" as="geometry">
            <mxPoint x="480" y="180" as="targetPoint" />
            <mxPoint x="170" y="130" as="sourcePoint" />
            <Array as="points">
              <mxPoint x="170" y="180" />
            </Array>
          </mxGeometry>
        </mxCell>
        <mxCell id="Xi_Mlwiq7mVEcRBWBNJl-23" value="SubnetPriv1" style="points=[[0,0],[0.25,0],[0.5,0],[0.75,0],[1,0],[1,0.25],[1,0.5],[1,0.75],[1,1],[0.75,1],[0.5,1],[0.25,1],[0,1],[0,0.75],[0,0.5],[0,0.25]];outlineConnect=0;gradientColor=none;html=1;whiteSpace=wrap;fontSize=12;fontStyle=0;container=1;pointerEvents=0;collapsible=0;recursiveResize=0;shape=mxgraph.aws4.group;grIcon=mxgraph.aws4.group_security_group;grStroke=0;strokeColor=#147EBA;fillColor=#E6F2F8;verticalAlign=top;align=left;spacingLeft=30;fontColor=#147EBA;dashed=0;rounded=0;" parent="Xi_Mlwiq7mVEcRBWBNJl-1" vertex="1">
          <mxGeometry x="300" y="60" width="108" height="70" as="geometry" />
        </mxCell>
        <mxCell id="Xi_Mlwiq7mVEcRBWBNJl-24" style="edgeStyle=orthogonalEdgeStyle;rounded=0;orthogonalLoop=1;jettySize=auto;html=1;exitX=0.5;exitY=1;exitDx=0;exitDy=0;" parent="Xi_Mlwiq7mVEcRBWBNJl-1" source="Xi_Mlwiq7mVEcRBWBNJl-22" target="Xi_Mlwiq7mVEcRBWBNJl-22" edge="1">
          <mxGeometry relative="1" as="geometry" />
        </mxCell>
        <mxCell id="Xi_Mlwiq7mVEcRBWBNJl-25" value="" style="points=[[0,0],[0.25,0],[0.5,0],[0.75,0],[1,0],[1,0.25],[1,0.5],[1,0.75],[1,1],[0.75,1],[0.5,1],[0.25,1],[0,1],[0,0.75],[0,0.5],[0,0.25]];outlineConnect=0;gradientColor=none;html=1;whiteSpace=wrap;fontSize=12;fontStyle=0;container=1;pointerEvents=0;collapsible=0;recursiveResize=0;shape=mxgraph.aws4.group;grIcon=mxgraph.aws4.group_security_group;grStroke=0;strokeColor=#248814;fillColor=#E9F3E6;verticalAlign=top;align=left;spacingLeft=30;fontColor=#248814;dashed=0;rounded=0;" parent="Xi_Mlwiq7mVEcRBWBNJl-1" vertex="1">
          <mxGeometry x="90" y="60" width="190" height="70" as="geometry" />
        </mxCell>
        <mxCell id="Xi_Mlwiq7mVEcRBWBNJl-27" value="10.0.0.0/22" style="text;strokeColor=none;align=center;fillColor=none;html=1;verticalAlign=middle;whiteSpace=wrap;rounded=0;" parent="Xi_Mlwiq7mVEcRBWBNJl-25" vertex="1">
          <mxGeometry x="110" y="20" width="80" height="20" as="geometry" />
        </mxCell>
        <mxCell id="Xi_Mlwiq7mVEcRBWBNJl-26" value="10.0.12.0/22" style="text;strokeColor=none;align=center;fillColor=none;html=1;verticalAlign=middle;whiteSpace=wrap;rounded=0;" parent="Xi_Mlwiq7mVEcRBWBNJl-1" vertex="1">
          <mxGeometry x="320" y="80" width="80" height="20" as="geometry" />
        </mxCell>
        <mxCell id="Xi_Mlwiq7mVEcRBWBNJl-28" style="edgeStyle=orthogonalEdgeStyle;orthogonalLoop=1;jettySize=auto;html=1;elbow=vertical;exitX=0.429;exitY=1;exitDx=0;exitDy=0;exitPerimeter=0;startArrow=baseDash;startFill=0;endArrow=none;endFill=0;" parent="Xi_Mlwiq7mVEcRBWBNJl-1" edge="1">
          <mxGeometry relative="1" as="geometry">
            <mxPoint x="480" y="170" as="targetPoint" />
            <mxPoint x="330" y="130" as="sourcePoint" />
            <Array as="points">
              <mxPoint x="330" y="170" />
            </Array>
          </mxGeometry>
        </mxCell>
        <mxCell id="Xi_Mlwiq7mVEcRBWBNJl-29" value="Subnet Direction Association" style="text;strokeColor=none;align=center;fillColor=none;html=1;verticalAlign=middle;whiteSpace=wrap;rounded=0;" parent="Xi_Mlwiq7mVEcRBWBNJl-1" vertex="1">
          <mxGeometry x="370" y="10" width="100" height="30" as="geometry" />
        </mxCell>
        <mxCell id="Xi_Mlwiq7mVEcRBWBNJl-39" value="&#xa;&lt;span style=&quot;color: rgb(36, 136, 20); font-family: Helvetica; font-size: 12px; font-style: normal; font-variant-ligatures: normal; font-variant-caps: normal; font-weight: 400; letter-spacing: normal; orphans: 2; text-align: left; text-indent: 0px; text-transform: none; widows: 2; word-spacing: 0px; -webkit-text-stroke-width: 0px; background-color: rgb(251, 251, 251); text-decoration-thickness: initial; text-decoration-style: initial; text-decoration-color: initial; float: none; display: inline !important;&quot;&gt;SubnetPub1&lt;/span&gt;&#xa;&#xa;" style="text;strokeColor=none;align=center;fillColor=none;html=1;verticalAlign=middle;whiteSpace=wrap;rounded=0;" parent="Xi_Mlwiq7mVEcRBWBNJl-1" vertex="1">
          <mxGeometry x="200" y="70" width="80" height="20" as="geometry" />
        </mxCell>
        <mxCell id="Xi_Mlwiq7mVEcRBWBNJl-41" value="&lt;font color=&quot;#248814&quot;&gt;SubnetPub2&lt;/font&gt;" style="text;strokeColor=none;align=center;fillColor=none;html=1;verticalAlign=middle;whiteSpace=wrap;rounded=0;" parent="Xi_Mlwiq7mVEcRBWBNJl-1" vertex="1">
          <mxGeometry x="200" y="220" width="80" height="20" as="geometry" />
        </mxCell>
        <mxCell id="Xi_Mlwiq7mVEcRBWBNJl-48" value="" style="group;fillColor=none;shadow=0;" parent="Xi_Mlwiq7mVEcRBWBNJl-1" vertex="1" connectable="0">
          <mxGeometry x="130" y="60" width="70" height="350" as="geometry" />
        </mxCell>
        <mxCell id="Xi_Mlwiq7mVEcRBWBNJl-43" value="" style="rounded=0;whiteSpace=wrap;html=1;" parent="Xi_Mlwiq7mVEcRBWBNJl-48" vertex="1">
          <mxGeometry width="70" height="350" as="geometry" />
        </mxCell>
        <mxCell id="Xi_Mlwiq7mVEcRBWBNJl-44" value="" style="sketch=0;points=[[0,0,0],[0.25,0,0],[0.5,0,0],[0.75,0,0],[1,0,0],[0,1,0],[0.25,1,0],[0.5,1,0],[0.75,1,0],[1,1,0],[0,0.25,0],[0,0.5,0],[0,0.75,0],[1,0.25,0],[1,0.5,0],[1,0.75,0]];outlineConnect=0;fontColor=#232F3E;gradientColor=#F78E04;gradientDirection=north;fillColor=#D05C17;strokeColor=#ffffff;dashed=0;verticalLabelPosition=bottom;verticalAlign=top;align=center;html=1;fontSize=12;fontStyle=0;aspect=fixed;shape=mxgraph.aws4.resourceIcon;resIcon=mxgraph.aws4.ecs;" parent="Xi_Mlwiq7mVEcRBWBNJl-48" vertex="1">
          <mxGeometry width="15.75" height="15.75" as="geometry" />
        </mxCell>
        <mxCell id="Xi_Mlwiq7mVEcRBWBNJl-46" value="&lt;font color=&quot;#d36015&quot; style=&quot;font-size: 9px;&quot;&gt;Cluster (Fargate)&lt;/font&gt;" style="text;strokeColor=none;align=center;fillColor=none;html=1;verticalAlign=middle;whiteSpace=wrap;rounded=0;" parent="Xi_Mlwiq7mVEcRBWBNJl-48" vertex="1">
          <mxGeometry x="17.5" y="5.939999999999998" width="52.5" height="13.12" as="geometry" />
        </mxCell>
        <mxCell id="Xi_Mlwiq7mVEcRBWBNJl-30" style="edgeStyle=orthogonalEdgeStyle;rounded=0;orthogonalLoop=1;jettySize=auto;html=1;startArrow=classic;startFill=1;" parent="1" source="Xi_Mlwiq7mVEcRBWBNJl-31" target="Xi_Mlwiq7mVEcRBWBNJl-33" edge="1">
          <mxGeometry relative="1" as="geometry" />
        </mxCell>
        <mxCell id="Xi_Mlwiq7mVEcRBWBNJl-31" value="" style="outlineConnect=0;fontColor=#232F3E;gradientColor=none;fillColor=#4D27AA;strokeColor=none;dashed=0;verticalLabelPosition=bottom;verticalAlign=top;align=center;html=1;fontSize=12;fontStyle=0;aspect=fixed;pointerEvents=1;shape=mxgraph.aws4.internet_gateway;rounded=0;" parent="1" vertex="1">
          <mxGeometry x="340" y="-110" width="50" height="50" as="geometry" />
        </mxCell>
        <mxCell id="Xi_Mlwiq7mVEcRBWBNJl-32" style="edgeStyle=orthogonalEdgeStyle;rounded=0;orthogonalLoop=1;jettySize=auto;html=1;startArrow=classic;startFill=1;endArrow=none;endFill=0;" parent="1" source="Xi_Mlwiq7mVEcRBWBNJl-33" edge="1">
          <mxGeometry relative="1" as="geometry">
            <mxPoint x="610" y="-85" as="targetPoint" />
          </mxGeometry>
        </mxCell>
        <mxCell id="Xi_Mlwiq7mVEcRBWBNJl-33" value="" style="outlineConnect=0;fontColor=#232F3E;gradientColor=none;fillColor=#4D27AA;strokeColor=none;dashed=0;verticalLabelPosition=bottom;verticalAlign=top;align=center;html=1;fontSize=12;fontStyle=0;aspect=fixed;pointerEvents=1;shape=mxgraph.aws4.route_table;rounded=0;" parent="1" vertex="1">
          <mxGeometry x="490" y="-110" width="51.32" height="50" as="geometry" />
        </mxCell>
        <mxCell id="Xi_Mlwiq7mVEcRBWBNJl-34" value="Local(10.0.0.0/32)" style="text;strokeColor=none;align=center;fillColor=none;html=1;verticalAlign=middle;whiteSpace=wrap;rounded=0;" parent="1" vertex="1">
          <mxGeometry x="610" y="-100" width="100" height="30" as="geometry" />
        </mxCell>
        <mxCell id="Xi_Mlwiq7mVEcRBWBNJl-35" value="CruddurIGW" style="text;strokeColor=none;align=center;fillColor=none;html=1;verticalAlign=middle;whiteSpace=wrap;rounded=0;" parent="1" vertex="1">
          <mxGeometry x="315" y="-60" width="100" height="30" as="geometry" />
        </mxCell>
        <mxCell id="Xi_Mlwiq7mVEcRBWBNJl-36" value="0.0.0.0/32" style="text;strokeColor=none;align=center;fillColor=none;html=1;verticalAlign=middle;whiteSpace=wrap;rounded=0;" parent="1" vertex="1">
          <mxGeometry x="400" y="-120" width="100" height="30" as="geometry" />
        </mxCell>
        <mxCell id="Xi_Mlwiq7mVEcRBWBNJl-37" value="CruddurRT" style="text;strokeColor=none;align=center;fillColor=none;html=1;verticalAlign=middle;whiteSpace=wrap;rounded=0;" parent="1" vertex="1">
          <mxGeometry x="465.65999999999997" y="-60" width="100" height="30" as="geometry" />
        </mxCell>
        <mxCell id="VnygE6IcTzNg27r3DCt2-1" value="" style="rounded=0;whiteSpace=wrap;html=1;rotation=90;" vertex="1" parent="1">
          <mxGeometry x="-770" y="74" width="273.75" height="175" as="geometry" />
        </mxCell>
        <mxCell id="VnygE6IcTzNg27r3DCt2-12" style="edgeStyle=orthogonalEdgeStyle;rounded=0;orthogonalLoop=1;jettySize=auto;html=1;entryX=0.5;entryY=1;entryDx=0;entryDy=0;entryPerimeter=0;endArrow=none;endFill=0;startArrow=classic;startFill=1;" edge="1" parent="1" source="VnygE6IcTzNg27r3DCt2-2" target="VnygE6IcTzNg27r3DCt2-8">
          <mxGeometry relative="1" as="geometry">
            <mxPoint x="-110" y="190" as="targetPoint" />
            <Array as="points">
              <mxPoint x="-511" y="90" />
            </Array>
          </mxGeometry>
        </mxCell>
        <mxCell id="VnygE6IcTzNg27r3DCt2-23" value="" style="edgeStyle=orthogonalEdgeStyle;rounded=0;orthogonalLoop=1;jettySize=auto;html=1;" edge="1" parent="1" source="VnygE6IcTzNg27r3DCt2-2" target="VnygE6IcTzNg27r3DCt2-3">
          <mxGeometry relative="1" as="geometry" />
        </mxCell>
        <mxCell id="VnygE6IcTzNg27r3DCt2-25" style="edgeStyle=orthogonalEdgeStyle;rounded=0;orthogonalLoop=1;jettySize=auto;html=1;" edge="1" parent="1" source="VnygE6IcTzNg27r3DCt2-2">
          <mxGeometry relative="1" as="geometry">
            <mxPoint x="-410" y="103" as="targetPoint" />
          </mxGeometry>
        </mxCell>
        <mxCell id="VnygE6IcTzNg27r3DCt2-2" value="" style="sketch=0;outlineConnect=0;fontColor=#232F3E;gradientColor=none;fillColor=#4D27AA;strokeColor=none;dashed=0;verticalLabelPosition=bottom;verticalAlign=top;align=center;html=1;fontSize=12;fontStyle=0;aspect=fixed;pointerEvents=1;shape=mxgraph.aws4.application_load_balancer;" vertex="1" parent="1">
          <mxGeometry x="-662.12" y="74" width="58" height="58" as="geometry" />
        </mxCell>
        <mxCell id="VnygE6IcTzNg27r3DCt2-3" value="&lt;font color=&quot;#cc0000&quot;&gt;ALB SECURITY GROUP&lt;/font&gt;" style="text;strokeColor=none;align=center;fillColor=none;html=1;verticalAlign=middle;whiteSpace=wrap;rounded=0;" vertex="1" parent="1">
          <mxGeometry x="-708.12" y="40" width="150" height="30" as="geometry" />
        </mxCell>
        <mxCell id="VnygE6IcTzNg27r3DCt2-4" value="ALB" style="text;strokeColor=none;align=center;fillColor=none;html=1;verticalAlign=middle;whiteSpace=wrap;rounded=0;" vertex="1" parent="1">
          <mxGeometry x="-683.12" y="132" width="100" height="30" as="geometry" />
        </mxCell>
        <mxCell id="VnygE6IcTzNg27r3DCt2-5" value="Ingress" style="text;strokeColor=none;align=left;fillColor=none;html=1;verticalAlign=middle;whiteSpace=wrap;rounded=0;" vertex="1" parent="1">
          <mxGeometry x="-713.12" y="162" width="100" height="30" as="geometry" />
        </mxCell>
        <mxCell id="VnygE6IcTzNg27r3DCt2-6" value="(HTTP) TCP 80 0.0.0.0&lt;br&gt;(HTTPS) TCP 443 0.0.0.0" style="text;whiteSpace=wrap;html=1;" vertex="1" parent="1">
          <mxGeometry x="-713.12" y="192" width="150" height="40" as="geometry" />
        </mxCell>
        <mxCell id="VnygE6IcTzNg27r3DCt2-7" value="Outgress&lt;br&gt;TCP ALL 0.0.0.0" style="text;whiteSpace=wrap;html=1;" vertex="1" parent="1">
          <mxGeometry x="-713.12" y="260" width="130" height="40" as="geometry" />
        </mxCell>
        <mxCell id="VnygE6IcTzNg27r3DCt2-8" value="" style="sketch=0;points=[[0,0,0],[0.25,0,0],[0.5,0,0],[0.75,0,0],[1,0,0],[0,1,0],[0.25,1,0],[0.5,1,0],[0.75,1,0],[1,1,0],[0,0.25,0],[0,0.5,0],[0,0.75,0],[1,0.25,0],[1,0.5,0],[1,0.75,0]];outlineConnect=0;fontColor=#232F3E;gradientColor=#F54749;gradientDirection=north;fillColor=#C7131F;strokeColor=#ffffff;dashed=0;verticalLabelPosition=bottom;verticalAlign=top;align=center;html=1;fontSize=12;fontStyle=0;aspect=fixed;shape=mxgraph.aws4.resourceIcon;resIcon=mxgraph.aws4.certificate_manager_3;" vertex="1" parent="1">
          <mxGeometry x="-534.25" y="-38" width="38" height="38" as="geometry" />
        </mxCell>
        <mxCell id="VnygE6IcTzNg27r3DCt2-13" value="&lt;b&gt;attached to ...&lt;/b&gt;" style="text;whiteSpace=wrap;html=1;" vertex="1" parent="1">
          <mxGeometry x="-496.25" y="10" width="90.62" height="40" as="geometry" />
        </mxCell>
        <mxCell id="VnygE6IcTzNg27r3DCt2-14" value="&lt;b&gt;ACM Certificate&lt;br&gt;&amp;nbsp;&lt;/b&gt;*.rietta.online&lt;br&gt;rietta.online" style="text;whiteSpace=wrap;html=1;" vertex="1" parent="1">
          <mxGeometry x="-490" y="-70" width="130" height="60" as="geometry" />
        </mxCell>
        <mxCell id="VnygE6IcTzNg27r3DCt2-15" value="" style="rounded=0;whiteSpace=wrap;html=1;rotation=-180;" vertex="1" parent="1">
          <mxGeometry x="-405.63" y="74.00000000000001" width="154.37" height="51.51" as="geometry" />
        </mxCell>
        <mxCell id="VnygE6IcTzNg27r3DCt2-20" style="edgeStyle=orthogonalEdgeStyle;rounded=0;orthogonalLoop=1;jettySize=auto;html=1;endArrow=none;endFill=0;" edge="1" parent="1">
          <mxGeometry relative="1" as="geometry">
            <mxPoint x="-220" y="164" as="targetPoint" />
            <mxPoint x="-250" y="104" as="sourcePoint" />
            <Array as="points">
              <mxPoint x="-250" y="105" />
              <mxPoint x="-219" y="105" />
              <mxPoint x="-219" y="164" />
            </Array>
          </mxGeometry>
        </mxCell>
        <mxCell id="VnygE6IcTzNg27r3DCt2-17" value="HTTPListener&lt;br&gt;Port&amp;nbsp; 80" style="text;whiteSpace=wrap;html=1;" vertex="1" parent="1">
          <mxGeometry x="-393.45" y="79.75000000000001" width="130" height="40" as="geometry" />
        </mxCell>
        <mxCell id="VnygE6IcTzNg27r3DCt2-26" style="edgeStyle=orthogonalEdgeStyle;rounded=0;orthogonalLoop=1;jettySize=auto;html=1;exitX=1;exitY=0.5;exitDx=0;exitDy=0;endArrow=none;endFill=0;startArrow=classic;startFill=1;" edge="1" parent="1" source="VnygE6IcTzNg27r3DCt2-18">
          <mxGeometry relative="1" as="geometry">
            <mxPoint x="-450" y="100" as="targetPoint" />
          </mxGeometry>
        </mxCell>
        <mxCell id="VnygE6IcTzNg27r3DCt2-27" style="edgeStyle=orthogonalEdgeStyle;rounded=0;orthogonalLoop=1;jettySize=auto;html=1;endArrow=none;endFill=0;startArrow=classic;startFill=1;" edge="1" parent="1" source="VnygE6IcTzNg27r3DCt2-18">
          <mxGeometry relative="1" as="geometry">
            <mxPoint x="-220" y="166.24500000000012" as="targetPoint" />
          </mxGeometry>
        </mxCell>
        <mxCell id="VnygE6IcTzNg27r3DCt2-18" value="" style="rounded=0;whiteSpace=wrap;html=1;rotation=-180;" vertex="1" parent="1">
          <mxGeometry x="-405.63" y="140.49" width="158.74" height="51.51" as="geometry" />
        </mxCell>
        <mxCell id="VnygE6IcTzNg27r3DCt2-19" value="HTTPListener&lt;br&gt;Port&amp;nbsp; 443" style="text;whiteSpace=wrap;html=1;" vertex="1" parent="1">
          <mxGeometry x="-393.45" y="146.25000000000003" width="130" height="40" as="geometry" />
        </mxCell>
        <mxCell id="VnygE6IcTzNg27r3DCt2-22" value="&lt;b&gt;Redirects to&lt;/b&gt;" style="text;whiteSpace=wrap;html=1;" vertex="1" parent="1">
          <mxGeometry x="-210" y="106" width="80" height="40" as="geometry" />
        </mxCell>
      </root>
    </mxGraphModel>
  </diagram>
</mxfile>
